<svg xmlns="http://www.w3.org/2000/svg" height="1200" width="1600" version="1.1" xmlns:xlink="http://www.w3.org/1999/xlink" xmlns:svgjs="http://svgjs.com/svgjs"><rect fill="#f3ebe9" width="1600" height="1200"></rect><g><path d="M423.82 846.93V914.13" stroke="#090806" stroke-width="4" stroke-linecap="round" stroke-linejoin="round" opacity="1" fill="none"></path><path d="M489.52 834.78C407.32 868.68 313.11 829.38 279.21 747.17 245.31 664.97 284.61 570.76 366.81 536.86L489.52 834.78Z" stroke="#090806" stroke-width="4" stroke-linecap="round" stroke-linejoin="round" opacity="1" fill="none"></path><path d="M489.52 834.78C407.32 868.68 313.11 829.38 279.21 747.17 245.31 664.97 284.61 570.76 366.81 536.86L489.52 834.78Z" fill="#776d50" opacity="0.3" stroke-width="4" stroke="none"></path><path d="M429.07 549.76C439.27 549.76 449.62 550.96 459.07 553.06 476.02 556.81 501.97 579.16 501.97 579.16 501.97 579.16 532.72 595.51 542.77 610.51 557.32 632.26 565.87 658.52 565.87 686.57 565.87 762.17 504.67 823.38 429.07 823.38 357.21 823.38 298.11 767.42 292.56 696.92 292.26 693.32 292.26 690.32 292.26 686.57 292.26 676.97 303.51 661.67 303.51 661.67 303.51 661.67 300.51 638.57 304.86 629.11 326.61 582.46 374.16 549.76 429.07 549.76Z" fill="#ffc930" opacity="1" stroke-width="4" stroke="none"></path><path d="M337.56 726.62C348.96 776.27 364.56 747.77 378.06 764.12 399.81 790.37 420.67 802.07 436.87 799.67 453.07 797.27 424.57 778.07 424.57 747.17 424.57 716.27 415.57 696.47 392.16 693.02 368.76 689.57 361.71 714.47 347.31 706.97 336.66 701.27 366.51 670.67 368.91 643.67 372.66 603.31 307.41 628.36 304.86 629.11 304.86 629.11 304.71 629.11 304.71 629.26 294.96 650.42 290.61 673.67 292.41 696.92 292.41 696.92 292.41 696.92 292.41 697.07 314.76 725.57 331.71 701.12 337.56 726.62Z" fill="#ffffff" opacity="1" stroke-width="4" stroke="none"></path><path d="M459.07 553.06C455.32 554.56 452.17 556.51 449.02 558.76 419.02 579.46 407.62 625.06 424.57 632.71 441.37 640.37 462.52 611.71 476.92 606.76 501.82 598.36 498.07 620.86 484.12 627.76 470.17 634.66 446.92 634.81 442.27 653.42 437.47 672.62 456.82 677.57 478.27 680.27 499.72 682.97 501.82 754.97 518.77 748.67 535.72 742.37 552.82 697.67 539.17 643.67 534.52 625.36 537.52 615.91 542.62 610.66V610.51C523.12 581.41 493.27 560.86 459.07 553.06Z" fill="#ffffff" opacity="1" stroke-width="4" stroke="none"></path><path d="M392.76 900.18H456.37C472.12 900.18 484.87 912.93 484.87 928.68V929.58H364.26V928.68C364.26 912.93 377.01 900.18 392.76 900.18Z" fill="#b9b097" opacity="1" stroke-width="4" stroke="none"></path></g><g><path d="M603.88 929.41L604.61 925.56C607.82 908.03 623.57 894.73 641.3 894.73H802.77L796.56 929.61H603.87L603.88 929.41Z" fill="#fe4f32" opacity="1" stroke-width="4" stroke="none"></path><path d="M665.54 929.41L698.49 746.36H891.18L866.66 882.4C861.74 909.18 837.8 929.41 810.63 929.41H665.54Z" fill="#fe4f32" opacity="1" stroke-width="4" stroke="none"></path><path d="M681.66 839.62L698.49 746.36H891.18L869.64 865.63 681.66 839.62Z" fill="#000000" opacity="0.25" stroke-width="4" stroke="none"></path><path d="M531.04 823.43C501.76 823.43 476.2 812.07 459.11 791.45 441.83 770.45 435.24 742.7 440.48 712.83L495.92 405.88C506.84 344.99 565.48 295.27 626.37 295.27H1126.01C1155.3 295.27 1180.86 306.64 1197.95 327.26 1215.22 348.26 1221.82 376.01 1216.58 405.88L1161.13 712.83C1150.22 773.72 1091.58 823.43 1030.69 823.43H531.04V823.43Z" fill="#fe4f32" opacity="1" stroke-width="4" stroke="none"></path><path d="M493.82 684.7L541.13 422.26C549.03 378.9 590.71 343.64 634.07 343.64H1101.14C1121.96 343.64 1140.13 351.73 1152.45 366.38 1164.77 381.21 1169.56 401.06 1165.63 422.26L1118.13 684.7H493.82Z" fill="#ffffff" opacity="1" stroke-width="4" stroke="none"></path><path d="M788.63 781.04C781.7 781.04 775.63 778.54 771.58 773.72 762.55 763.51 764.97 746.36 777.16 735.57 783.15 730.17 790.99 726.9 798.51 726.9 805.44 726.9 811.51 729.4 815.56 734.22 824.59 744.43 822.17 761.58 809.98 772.37 803.79 777.96 796.15 781.04 788.63 781.04Z" fill="#ba3d28" opacity="1" stroke-width="4" stroke="none"></path><path d="M683.5 827.29H876.19" stroke="#000000" stroke-width="4" stroke-linecap="round" stroke-linejoin="round" opacity="1" fill="none"></path></g><g><path d="M905.58 419.23H785.97C785.55 419.23 785.23 419.65 785.35 420.02L820.78 520.19C820.84 520.38 820.97 520.7 821.15 520.7L949.11 520.47C949.53 520.47 949.85 520 949.73 519.68L905.99 419.51C905.89 419.33 905.77 419.23 905.58 419.23Z" fill="#fe4f32" opacity="1" stroke-width="4" stroke="none"></path><path d="M883.76 419.23H855.36C854.94 419.23 854.6 419.74 854.82 420.07L864.85 435.6C864.99 435.83 865.36 435.83 865.58 435.65L883.96 420.12C884.3 419.79 884.17 419.23 883.76 419.23Z" fill="#6f2013" opacity="0.3" stroke-width="4" stroke="none"></path><path d="M830.11 520.42H949.16C949.63 520.42 949.93 520.8 949.84 521.26L929.19 628.66C929.1 629.12 928.65 629.5 928.19 629.5H809.14C808.67 629.5 808.28 629.12 808.36 628.66L829.11 521.26C829.2 520.8 829.65 520.42 830.11 520.42Z" fill="#ffc930" opacity="1" stroke-width="4" stroke="none"></path><path d="M903.9 547H865.2L849.32 629.54H888.03L903.9 547Z" fill="#fe4f32" opacity="1" stroke-width="4" stroke="none"></path><path d="M865.2 547H903.9L902.48 554.42 860.56 571.11 865.2 547Z" fill="#6f2013" opacity="0.3" stroke-width="4" stroke="none"></path><path d="M784.66 419.74L702.03 520.33C702.02 520.38 701.96 520.47 701.95 520.52L681.05 629.17C681.02 629.36 681.17 629.54 681.36 629.54H807.96C808.15 629.54 808.37 629.36 808.41 629.17L829.47 520.61C829.48 520.56 829.45 520.47 829.46 520.42L785.32 419.7C785.21 419.51 784.84 419.51 784.66 419.74Z" fill="#61ccff" opacity="1" stroke-width="4" stroke="none"></path><path d="M714.75 589.77L788.72 595.5 786.11 609.07 712.93 599.23 714.75 589.77Z" fill="#1a76a2" opacity="0.3" stroke-width="4" stroke="none"></path><path d="M798.05 547H722.97L713.64 595.5H788.72L798.05 547Z" fill="#ffffff" opacity="1" stroke-width="4" stroke="none"></path><path d="M768.26 506.95C775.09 506.95 781.68 501.42 782.99 494.59 784.31 487.77 779.84 482.23 773.01 482.23 766.19 482.23 759.59 487.77 758.28 494.59 756.97 501.42 761.44 506.95 768.26 506.95Z" fill="#ffc930" opacity="1" stroke-width="4" stroke="none"></path><path d="M762.26 498.13C763.73 491.7 770.56 486.24 776.99 486.29 778.9 486.29 780.58 486.76 782.02 487.55 782.06 487.55 782.12 487.5 782.07 487.5 780.41 484.24 777.03 482.19 772.72 482.28 766.26 482.42 759.9 487.59 758.35 493.98 757.09 499.07 759.08 503.5 762.82 505.64 762.82 505.64 762.87 505.64 762.88 505.59 761.94 503.45 761.63 500.93 762.26 498.13Z" fill="#271f0a" opacity="0.3" stroke-width="4" stroke="none"></path><path d="M760.6 547L751.27 595.5" stroke="#1a1a1a" stroke-width="4" stroke-linecap="round" stroke-linejoin="round" opacity="1" fill="none"></path><path d="M792.77 571.3L718.4 571.25" stroke="#1a1a1a" stroke-width="4" stroke-linecap="round" stroke-linejoin="round" opacity="1" fill="none"></path><path d="M875.87 419.23L919.83 520.42" stroke="#ff9787" stroke-width="4" stroke-linecap="round" stroke-linejoin="round" opacity="1" fill="none"></path><path d="M845.7 419.23L889.66 520.42" stroke="#ff9787" stroke-width="4" stroke-linecap="round" stroke-linejoin="round" opacity="1" fill="none"></path><path d="M815.49 419.23L859.44 520.42" stroke="#ff9787" stroke-width="4" stroke-linecap="round" stroke-linejoin="round" opacity="1" fill="none"></path><path d="M846.54 401.05H871.49C871.68 401.05 871.79 401.19 871.75 401.37L865.15 435.69C865.12 435.88 864.95 436.02 864.76 436.02H839.82C839.63 436.02 839.52 435.88 839.55 435.69L846.15 401.37C846.19 401.19 846.36 401.05 846.54 401.05Z" fill="#61ccff" opacity="1" stroke-width="4" stroke="none"></path><path d="M839.51 435.93L846.39 401.09C846.39 401.09 846.4 401.05 846.36 401.05H835.68C835.68 401.05 835.63 401.05 835.62 401.09L832.13 419.23 839.42 435.93C839.45 435.97 839.5 435.97 839.51 435.93Z" fill="#ffc930" opacity="1" stroke-width="4" stroke="none"></path><path d="M867.82 584.31L866.29 592.24" stroke="#6f2013" stroke-width="4" stroke-linecap="round" stroke-linejoin="round" opacity="1" fill="none"></path><path d="M829.32 520.42H950.05" stroke="#6f2013" stroke-width="4" stroke-linecap="round" stroke-linejoin="round" opacity="1" fill="none"></path><path d="M839.52 435.88L865.09 436.02" stroke="#6f2013" stroke-width="4" stroke-linecap="round" stroke-linejoin="round" opacity="1" fill="none"></path><path d="M861.84 547H907.21" stroke="#271f0a" stroke-width="4" stroke-linecap="round" stroke-linejoin="round" opacity="1" fill="none"></path></g><g><path d="M1183.36 415.07C1237.12 415.07 1280.7 371.49 1280.7 317.73 1280.7 263.97 1237.12 220.39 1183.36 220.39 1129.6 220.39 1086.02 263.97 1086.02 317.73 1086.02 371.49 1129.6 415.07 1183.36 415.07Z" fill="#ffc930" opacity="1" stroke-width="4" stroke="none"></path><path d="M1209.91 344.28C1234.83 319.35 1243.09 287.2 1228.34 272.45 1226.13 270.24 1223.47 268.47 1220.67 267.29 1218.17 266.26 1215.51 265.67 1212.86 265.37 1210.64 265.08 1208.43 266.26 1207.55 268.18L1195.75 291.04C1194.42 293.69 1195.45 296.79 1197.96 298.12 1198.11 298.26 1198.26 298.26 1198.4 298.26L1204.89 300.92C1207.55 301.95 1208.73 304.9 1207.69 307.41 1207.55 307.7 1207.4 308 1207.25 308.14 1198.85 321.57 1187.49 332.92 1174.07 341.48 1171.71 342.95 1168.61 342.21 1167.14 339.85 1166.99 339.56 1166.84 339.26 1166.69 339.12L1164.04 332.48C1163.01 329.82 1159.91 328.5 1157.25 329.53L1156.81 329.68 1133.95 341.48C1132.04 342.36 1130.86 344.43 1131.15 346.64 1131.45 349.44 1132.04 352.09 1133.07 354.75 1134.25 357.7 1136.02 360.21 1138.23 362.42 1152.83 377.46 1184.98 369.2 1209.91 344.28Z" fill="#ffffff" opacity="1" stroke-width="4" stroke="none"></path></g><g><path d="M1174.01 804.8H1299.59C1301.01 804.8 1301.37 806.76 1299.95 807.29 1288.05 811.02 1264.25 819.37 1239.02 832.69 1214.33 845.66 1188.22 863.42 1170.63 886.16H1089.28C1089.28 886.16 1092.48 872.84 1104.2 856.14 1115.92 839.26 1136.53 819.19 1171.17 805.51 1172.05 804.98 1173.12 804.8 1174.01 804.8Z" fill="#61ccff" opacity="1" stroke-width="4" stroke="none"></path><path d="M1239.02 832.51C1214.51 845.48 1188.4 863.07 1170.81 885.98H1089.46C1089.46 885.98 1092.48 872.66 1104.2 855.96L1239.02 832.51Z" fill="#0b4f6f" opacity="0.3" stroke-width="4" stroke="none"></path><path d="M1347.73 925.77H1158.91V884.74C1158.91 884.74 1199.94 856.67 1253.23 856.67 1298.17 856.67 1334.59 876.74 1344.71 882.96 1346.49 884.03 1347.55 885.98 1347.55 888.11L1347.73 925.77Z" fill="#61ccff" opacity="1" stroke-width="4" stroke="none"></path><path d="M1159.8 925.77H970.27V885.09C970.27 884.74 970.44 884.56 970.62 884.38 974.71 881.72 1014.14 856.5 1064.59 856.5 1117.88 856.5 1159.8 884.56 1159.8 884.56V925.77Z" fill="#61ccff" opacity="1" stroke-width="4" stroke="none"></path><path d="M971.15 884.74C971.15 884.74 1012.19 856.67 1065.48 856.67 1118.77 856.67 1159.8 884.74 1159.8 884.74V925.77" stroke="#000000" stroke-width="4" stroke-linecap="round" stroke-linejoin="round" opacity="1" fill="none"></path></g><g><path d="M197.72 957.74L1401.88 957.74V926.24L197.72 926.24V957.74Z" fill="#ffffff" opacity="1" stroke-width="4" stroke="none"></path></g></svg>